<svg width="32" height="34" viewBox="0 0 32 34" fill="none" xmlns="http://www.w3.org/2000/svg">
<path fill-rule="evenodd" clip-rule="evenodd" d="M26.8659 25.253L31.8231 21.9405V16.9507V16.7319V11.7879L26.8659 8.52108L31.8231 5.20861V4.3605e-05L23.5534 5.93964L15.8319 0.365557V5.2543L20.4465 8.40686L15.8319 11.6051V16.6994L23.7361 11.1254L31.671 16.8412L23.5534 22.6715L15.8319 17.0974V21.9862L20.4465 25.1387L15.8319 28.337L15.8319 33.4313L23.7361 27.8572L31.8231 33.6826L31.8231 28.5197L26.8659 25.253ZM14.4377 18.3469C13.9199 17.6616 13.2041 17.159 12.2904 16.8392C12.9757 16.4889 13.5011 16.0168 13.8666 15.4228C14.2474 14.8137 14.4377 14.1283 14.4377 13.3668C14.4377 12.0875 13.9047 11.0748 12.8386 10.3285C11.7725 9.56701 10.2191 9.18626 8.17833 9.18626H-4.1149e-05V25.1775H8.63522C10.7674 25.1775 12.397 24.7967 13.524 24.0353C14.651 23.2738 15.2145 22.1925 15.2145 20.7913C15.2145 19.8318 14.9556 19.0171 14.4377 18.3469ZM4.4775 15.5371V12.453H7.58437C9.10734 12.453 9.86883 12.9632 9.86883 13.9836C9.86883 15.0193 9.10734 15.5371 7.58437 15.5371H4.4775ZM10.6455 20.2887C10.6455 21.3701 9.85359 21.9107 8.2697 21.9107H4.4775V18.6668H8.2697C9.85359 18.6668 10.6455 19.2074 10.6455 20.2887Z" fill="white"/>
</svg>
