<svg width="55" height="37" viewBox="0 0 55 37" fill="none" xmlns="http://www.w3.org/2000/svg">
<path fill-rule="evenodd" clip-rule="evenodd" d="M39.3714 11.2813L36.7728 15.6239C36.7139 15.7223 36.6819 15.8348 36.6802 15.9498C36.6785 16.0647 36.7072 16.1781 36.7632 16.2783C36.8192 16.3784 36.9006 16.4618 36.999 16.5198C37.0975 16.5778 37.2095 16.6084 37.3235 16.6085H49.7534C49.8643 16.6085 49.9734 16.5797 50.07 16.5248C50.1666 16.4698 50.2475 16.3907 50.3048 16.2949L52.9048 11.9516C52.9636 11.8531 52.9954 11.7407 52.997 11.6258C52.9986 11.5108 52.9698 11.3975 52.9138 11.2975C52.8577 11.1974 52.7763 11.1142 52.6778 11.0562C52.5794 10.9983 52.4674 10.9678 52.3534 10.9678H39.9221C39.8113 10.9677 39.7023 10.9965 39.6058 11.0515C39.5093 11.1064 39.4286 11.1856 39.3714 11.2813Z" fill="white"/>
<path fill-rule="evenodd" clip-rule="evenodd" d="M40.018 7.34962L42.6267 2.9931C42.685 2.89564 42.7166 2.7843 42.7182 2.67049C42.7199 2.55668 42.6915 2.44448 42.636 2.34536C42.5805 2.24625 42.4998 2.16378 42.4024 2.1064C42.3049 2.04902 42.194 2.01879 42.0811 2.0188H12.415C12.246 2.0188 12.084 2.08649 11.9645 2.20697C11.845 2.32745 11.7779 2.49086 11.7779 2.66125V3.66266C11.7779 3.75466 11.7974 3.84559 11.8353 3.92931L13.371 7.32837C13.4139 7.42332 13.4332 7.52736 13.4272 7.63151C13.4213 7.73566 13.3903 7.83679 13.3369 7.92614L3.09366 25.057C3.03554 25.1544 3.00411 25.2657 3.00258 25.3794C3.00105 25.4931 3.02948 25.6052 3.08496 25.7042C3.14044 25.8032 3.22098 25.8856 3.31836 25.9429C3.41574 26.0002 3.52647 26.0305 3.63924 26.0306L28.1445 26.0093C28.3171 26.0111 28.4882 25.9775 28.6474 25.9105C28.8067 25.8435 28.9507 25.7445 29.0708 25.6196C29.0846 25.6057 37.6431 11.3069 37.6431 11.3069C37.6636 11.2722 37.6746 11.2327 37.6751 11.1923C37.6755 11.1519 37.6654 11.1121 37.6457 11.077C37.626 11.0418 37.5975 11.0125 37.563 10.992C37.5285 10.9716 37.4892 10.9607 37.4492 10.9604H23.0295C22.9905 10.9603 22.9521 10.9703 22.9181 10.9896C22.8841 11.0088 22.8557 11.0366 22.8355 11.0703L20.1163 15.5975C20.0579 15.6949 20.0261 15.8062 20.0244 15.9201C20.0226 16.034 20.0509 16.1462 20.1064 16.2455C20.1618 16.3447 20.2424 16.4272 20.3399 16.4847C20.4374 16.5422 20.5482 16.5725 20.6612 16.5725H26.8412C26.9541 16.5726 27.0648 16.603 27.1622 16.6604C27.2596 16.7178 27.3401 16.8003 27.3955 16.8994C27.4509 16.9985 27.4793 17.1106 27.4776 17.2244C27.476 17.3381 27.4444 17.4494 27.3861 17.5468L25.8511 20.1108C25.7945 20.2055 25.7146 20.2838 25.6191 20.3381C25.5236 20.3924 25.4158 20.4208 25.3062 20.4206H13.7728C13.6599 20.4208 13.549 20.3907 13.4515 20.3334C13.354 20.2761 13.2734 20.1937 13.2178 20.0946C13.1623 19.9955 13.1339 19.8834 13.1356 19.7696C13.1372 19.6558 13.1688 19.5445 13.2272 19.4471L20.1018 7.97009C20.1584 7.87537 20.2383 7.797 20.3337 7.74258C20.4292 7.68816 20.537 7.65954 20.6466 7.65949H39.4724C39.5821 7.65957 39.69 7.63109 39.7855 7.5768C39.8811 7.52252 39.9612 7.44426 40.018 7.34962Z" fill="white"/>
<path fill-rule="evenodd" clip-rule="evenodd" d="M46.9987 19.9102L34.4903 19.9065C34.3796 19.9065 34.2708 19.9354 34.1743 19.9901C34.0779 20.0449 33.997 20.1239 33.9396 20.2193L31.3483 24.5341C31.2892 24.6325 31.2571 24.745 31.2553 24.8601C31.2535 24.9752 31.2821 25.0887 31.3381 25.189C31.3941 25.2892 31.4756 25.3727 31.5742 25.4307C31.6727 25.4888 31.7848 25.5194 31.899 25.5193H37.1208C37.2348 25.5195 37.3466 25.5501 37.4449 25.6081C37.5433 25.6661 37.6246 25.7493 37.6806 25.8494C37.7366 25.9494 37.7653 26.0626 37.7637 26.1775C37.7621 26.2924 37.7303 26.4048 37.6715 26.5032L36.1459 29.0547C36.0886 29.1502 36.0078 29.2293 35.9113 29.2842C35.8149 29.3392 35.706 29.3681 35.5952 29.3682H24.0705C23.9565 29.368 23.8447 29.3373 23.7463 29.2792C23.648 29.2212 23.5667 29.1378 23.5107 29.0377C23.4548 28.9375 23.4263 28.8242 23.428 28.7093C23.4297 28.5944 23.4617 28.482 23.5206 28.3836L23.6027 28.2467C23.6516 28.1664 23.6784 28.0743 23.6802 27.9801C23.682 27.8859 23.6589 27.7929 23.6131 27.7107C23.5673 27.6285 23.5006 27.5602 23.4198 27.5127C23.339 27.4653 23.2472 27.4405 23.1537 27.4408H17.7633C17.6234 27.4408 17.4859 27.4772 17.3641 27.5465C17.2423 27.6158 17.1403 27.7157 17.0681 27.8364L13.3863 33.9936C13.3273 34.0921 13.2954 34.2046 13.2937 34.3196C13.292 34.4346 13.3207 34.5481 13.3768 34.6482C13.4329 34.7484 13.5144 34.8318 13.613 34.8897C13.7116 34.9477 13.8236 34.9782 13.9377 34.9781H38.7612C38.8722 34.978 38.9812 34.949 39.0778 34.8939C39.1744 34.8389 39.2552 34.7596 39.3126 34.6639L47.5508 20.8918C47.6088 20.7933 47.64 20.681 47.6411 20.5665C47.6423 20.4519 47.6133 20.339 47.5573 20.2394C47.5012 20.1397 47.42 20.0568 47.3219 19.9989C47.2238 19.9411 47.1123 19.9105 46.9987 19.9102Z" fill="white"/>
<path fill-rule="evenodd" clip-rule="evenodd" d="M54.6576 10.3049C54.4269 9.89355 54.0921 9.55127 53.6874 9.31293C53.2827 9.0746 52.8226 8.94874 52.3539 8.94819H41.7388C41.7011 8.9481 41.6643 8.93737 41.6324 8.91722C41.6005 8.89708 41.5749 8.86832 41.5584 8.83422C41.5419 8.80012 41.5352 8.76204 41.5391 8.72431C41.543 8.68657 41.5573 8.65069 41.5804 8.62074C41.6341 8.54748 44.341 4.03933 44.341 4.03933C44.5836 3.63545 44.7153 3.17373 44.7225 2.70157C44.7297 2.2294 44.6122 1.76382 44.382 1.35261C44.1517 0.941396 43.8171 0.59938 43.4125 0.361675C43.0078 0.12397 42.5478 -0.00085876 42.0795 4.44664e-06H12.4141C11.7143 0.000780049 11.0435 0.281424 10.5487 0.780361C10.0539 1.2793 9.77556 1.95578 9.77479 2.66139V2.69508C9.79803 4.07595 9.83073 4.36605 10.0123 4.76749L11.2059 7.40909C11.2195 7.43911 11.2256 7.47201 11.2237 7.50495C11.2218 7.53788 11.212 7.56985 11.195 7.59809L1.37752 24.0162C1.13597 24.4199 1.00519 24.8812 0.998556 25.3527C0.991925 25.8242 1.10969 26.289 1.33978 26.6996C1.56987 27.1101 1.90403 27.4516 2.30803 27.6891C2.71204 27.9265 3.17138 28.0515 3.63902 28.0511L14.2506 28.0423C14.2862 28.0422 14.3212 28.0516 14.352 28.0697C14.3828 28.0877 14.4082 28.1137 14.4258 28.1449C14.4433 28.1762 14.4523 28.2116 14.4517 28.2475C14.4512 28.2834 14.4412 28.3185 14.4227 28.3492L11.6694 32.9541C11.4273 33.3588 11.2962 33.8212 11.2895 34.2938C11.2828 34.7664 11.4007 35.2324 11.6312 35.644C11.8617 36.0555 12.1965 36.398 12.6013 36.6363C13.0062 36.8745 13.4665 37 13.9353 37H38.7588C39.2149 36.9992 39.6632 36.8801 40.0605 36.6542C40.4578 36.4283 40.7908 36.1031 41.0275 35.71L54.6184 12.9956C54.8603 12.5907 54.9914 12.1283 54.9983 11.6556C55.0052 11.1829 54.8876 10.7168 54.6576 10.3049ZM54.0473 12.6491L40.4529 35.362C40.276 35.6556 40.0274 35.8985 39.7308 36.0674C39.4341 36.2364 39.0994 36.3257 38.7588 36.3268H13.9353C13.5848 36.3269 13.2406 36.2332 12.9378 36.0551C12.6351 35.877 12.3847 35.621 12.2122 35.3133C12.0398 35.0056 11.9516 34.6572 11.9565 34.3038C11.9615 33.9505 12.0595 33.6047 12.2404 33.3021L14.9945 28.6972C15.0729 28.5641 15.1151 28.4126 15.1168 28.2578C15.1185 28.103 15.0796 27.9506 15.0041 27.8158C14.9286 27.681 14.8192 27.5688 14.6869 27.4903C14.5546 27.4119 14.4041 27.3701 14.2506 27.3691L3.63902 27.3786C3.28966 27.3787 2.94656 27.2851 2.6448 27.1076C2.34304 26.9301 2.09346 26.6749 1.92158 26.3682C1.7497 26.0615 1.66169 25.7143 1.66655 25.362C1.67141 25.0098 1.76897 24.6652 1.94925 24.3634L11.7668 7.94532C11.8394 7.82335 11.8815 7.68544 11.8896 7.54343C11.8977 7.40141 11.8715 7.25954 11.8133 7.12998L10.6197 4.48838C10.4954 4.21441 10.4642 4.01442 10.4424 2.68629V2.65919C10.4434 2.13239 10.6515 1.62749 11.0211 1.25519C11.3907 0.882901 11.8916 0.673612 12.4141 0.673225H42.0795C42.4288 0.673203 42.7719 0.766768 43.0735 0.944346C43.3752 1.12192 43.6247 1.37714 43.7965 1.68387C43.9682 1.99061 44.0561 2.33785 44.051 2.69006C44.046 3.04228 43.9482 3.38682 43.7678 3.68843C42.7362 5.40774 41.1721 8.01052 41.0312 8.23468C40.9401 8.36596 40.8863 8.51984 40.8756 8.67971C40.865 8.83958 40.8978 8.99934 40.9707 9.14174C41.0435 9.28413 41.1536 9.40374 41.289 9.48764C41.4243 9.57153 41.5799 9.61652 41.7388 9.61775L52.3539 9.62141C52.7044 9.6216 53.0486 9.71567 53.3512 9.89397C53.6538 10.0723 53.9041 10.3284 54.0763 10.6363C54.2486 10.9441 54.3366 11.2925 54.3316 11.6459C54.3265 11.9993 54.2284 12.345 54.0473 12.6476V12.6491Z" fill="white"/>
</svg>
