<svg width="272" height="43" viewBox="0 0 272 43" fill="none" xmlns="http://www.w3.org/2000/svg">
<g clip-path="url(#clip0)">
<path d="M253.263 13.9501L250.465 18.5392C250.401 18.643 250.367 18.7616 250.365 18.883C250.363 19.0043 250.394 19.1239 250.454 19.2296C250.514 19.3353 250.602 19.4233 250.708 19.4846C250.814 19.5458 250.934 19.5781 251.057 19.5783H264.436C264.555 19.5781 264.673 19.5475 264.777 19.4893C264.881 19.4312 264.968 19.3475 265.029 19.2463L267.827 14.662C267.891 14.5581 267.925 14.4393 267.927 14.3179C267.929 14.1965 267.898 14.0767 267.838 13.971C267.777 13.8652 267.69 13.7772 267.583 13.7161C267.477 13.655 267.357 13.6228 267.234 13.623H253.853C253.735 13.6233 253.618 13.6536 253.515 13.7108C253.412 13.7681 253.325 13.8504 253.263 13.9501Z" fill="white"/>
<path d="M253.96 9.80356L256.766 5.20323C256.829 5.10047 256.864 4.98294 256.866 4.86274C256.867 4.74254 256.837 4.624 256.777 4.51932C256.717 4.41465 256.631 4.32761 256.526 4.26716C256.42 4.20672 256.301 4.17505 256.179 4.17541H224.243C224.061 4.17541 223.887 4.24687 223.758 4.37407C223.63 4.50127 223.557 4.67379 223.557 4.85367V5.91196C223.557 6.0093 223.578 6.10553 223.619 6.19417L225.281 9.78111C225.326 9.88158 225.347 9.99151 225.34 10.1015C225.334 10.2115 225.301 10.3184 225.243 10.4129L214.22 28.4983C214.157 28.6012 214.123 28.7186 214.122 28.8386C214.12 28.9586 214.151 29.0769 214.21 29.1814C214.27 29.2859 214.357 29.3729 214.461 29.4334C214.566 29.494 214.685 29.526 214.807 29.5261L241.182 29.5037C241.368 29.5054 241.552 29.4699 241.723 29.3993C241.895 29.3288 242.05 29.2246 242.179 29.0932C242.192 29.0772 251.408 13.9822 251.408 13.9822C251.43 13.9455 251.442 13.9038 251.443 13.8612C251.443 13.8185 251.432 13.7766 251.411 13.7395C251.39 13.7024 251.359 13.6715 251.322 13.6499C251.285 13.6283 251.242 13.6168 251.199 13.6166H235.679C235.637 13.6168 235.596 13.6277 235.559 13.6482C235.523 13.6687 235.493 13.6981 235.471 13.7336L232.553 18.5136C232.49 18.6163 232.456 18.7338 232.454 18.8539C232.452 18.974 232.483 19.0925 232.542 19.1972C232.602 19.3019 232.688 19.3891 232.793 19.4498C232.898 19.5106 233.017 19.5427 233.138 19.543H239.785C239.906 19.5431 240.025 19.5751 240.13 19.6357C240.235 19.6962 240.322 19.7832 240.381 19.8877C240.441 19.9922 240.471 20.1105 240.47 20.2305C240.468 20.3505 240.434 20.4679 240.372 20.5708L238.72 23.279C238.658 23.3775 238.571 23.4586 238.469 23.5148C238.366 23.5709 238.25 23.6001 238.133 23.5997H225.717C225.595 23.5996 225.476 23.5676 225.372 23.507C225.267 23.4465 225.18 23.3595 225.12 23.255C225.061 23.1505 225.03 23.0322 225.032 22.9122C225.034 22.7922 225.067 22.6748 225.13 22.5719L232.529 10.4562C232.591 10.3575 232.677 10.2762 232.78 10.22C232.883 10.1639 232.998 10.1348 233.116 10.1355H253.38C253.497 10.1336 253.612 10.1021 253.714 10.044C253.815 9.98596 253.9 9.90318 253.96 9.80356Z" fill="white"/>
<path d="M261.472 23.0642H248.007C247.888 23.0641 247.771 23.0945 247.667 23.1524C247.563 23.2103 247.476 23.2936 247.414 23.3945L244.629 27.9451C244.565 28.0488 244.53 28.1676 244.528 28.2891C244.526 28.4106 244.556 28.5304 244.617 28.6363C244.677 28.7422 244.765 28.8302 244.871 28.8914C244.977 28.9525 245.098 28.9846 245.221 28.9842H250.841C250.964 28.9845 251.084 29.0169 251.19 29.0782C251.296 29.1394 251.383 29.2273 251.443 29.3329C251.504 29.4385 251.535 29.558 251.533 29.6793C251.531 29.8005 251.497 29.9192 251.434 30.0232L249.787 32.7106C249.726 32.8117 249.639 32.8954 249.535 32.9536C249.431 33.0117 249.313 33.0424 249.194 33.0425H236.796C236.673 33.0424 236.552 33.01 236.446 32.9486C236.34 32.8873 236.252 32.7992 236.192 32.6933C236.132 32.5875 236.101 32.4677 236.103 32.3462C236.104 32.2248 236.139 32.1059 236.202 32.0019L236.291 31.8576C236.343 31.7727 236.371 31.6756 236.373 31.5764C236.374 31.4773 236.349 31.3795 236.299 31.2933C236.25 31.207 236.178 31.1354 236.091 31.0858C236.004 31.0361 235.905 31.0103 235.805 31.0109H230.006C229.856 31.0107 229.708 31.049 229.576 31.122C229.445 31.195 229.335 31.3004 229.257 31.4278L225.295 37.9283C225.232 38.0322 225.197 38.151 225.195 38.2724C225.194 38.3938 225.224 38.5136 225.285 38.6193C225.345 38.7251 225.433 38.8131 225.539 38.8742C225.645 38.9354 225.766 38.9675 225.889 38.9673H252.606C252.726 38.9674 252.843 38.9368 252.947 38.8786C253.05 38.8204 253.137 38.7366 253.198 38.6354L262.066 24.0968C262.128 23.993 262.161 23.8749 262.162 23.7544C262.163 23.6339 262.132 23.5153 262.071 23.4105C262.011 23.3058 261.924 23.2186 261.819 23.1578C261.714 23.097 261.594 23.0647 261.472 23.0642Z" fill="white"/>
<path d="M214.314 23.0594H208.202C208.117 23.0592 208.033 23.0811 207.959 23.123C207.885 23.165 207.823 23.2254 207.781 23.2983L204.467 28.9104C204.431 28.9708 204.412 29.0394 204.412 29.1094C204.412 29.1793 204.43 29.2481 204.465 29.3087C204.501 29.3694 204.551 29.4198 204.613 29.4549C204.674 29.4899 204.743 29.5084 204.814 29.5085H210.874C210.929 29.5077 210.983 29.4925 211.031 29.4643C211.078 29.4362 211.118 29.3961 211.144 29.3481L214.584 23.5228C214.611 23.4757 214.625 23.4225 214.625 23.3685C214.624 23.3145 214.61 23.2615 214.583 23.2148C214.555 23.168 214.516 23.1291 214.469 23.1019C214.422 23.0746 214.368 23.06 214.314 23.0594Z" fill="white"/>
<path d="M212.315 11.0639L216.149 4.57147C216.182 4.51583 216.199 4.45253 216.199 4.38809C216.199 4.32365 216.181 4.2604 216.148 4.20485C216.115 4.14931 216.068 4.10348 216.011 4.0721C215.954 4.04071 215.89 4.0249 215.824 4.02629H173.109C173.049 4.02618 172.989 4.04084 172.936 4.06895C172.883 4.09706 172.837 4.13777 172.804 4.18744C172.77 4.23711 172.75 4.29421 172.744 4.35365C172.738 4.4131 172.747 4.47305 172.77 4.52817L174.902 9.64161C174.924 9.69313 174.933 9.74894 174.929 9.80461C174.925 9.86027 174.908 9.91426 174.88 9.9623L169.63 18.8519C169.593 18.9161 169.537 18.9674 169.469 18.999C169.401 19.0305 169.325 19.0408 169.251 19.0284C169.178 19.016 169.109 18.9815 169.056 18.9296C169.003 18.8777 168.967 18.8108 168.953 18.738L166.14 4.31972C166.124 4.23722 166.079 4.16291 166.013 4.10941C165.947 4.05592 165.865 4.02655 165.78 4.02629H13.3013C13.2411 4.02701 13.1819 4.04242 13.1292 4.07115C13.0764 4.09987 13.0316 4.14103 12.9987 4.19098C12.9658 4.24093 12.9459 4.29813 12.9407 4.35751C12.9356 4.41688 12.9453 4.4766 12.969 4.53138L15.177 9.66245C15.1989 9.71386 15.2084 9.7696 15.2047 9.82526C15.2011 9.88093 15.1844 9.93498 15.1559 9.98315L3.94416 28.9601C3.91141 29.0159 3.89423 29.0792 3.89436 29.1437C3.8945 29.2082 3.91195 29.2715 3.94493 29.3271C3.97791 29.3827 4.02524 29.4287 4.08207 29.4603C4.1389 29.4918 4.2032 29.5079 4.26839 29.5069H11.1858C11.2511 29.5083 11.3156 29.4923 11.3726 29.4608C11.4296 29.4292 11.477 29.3831 11.51 29.3273L16.6976 20.5548C16.7305 20.4989 16.778 20.4529 16.835 20.4213C16.892 20.3897 16.9565 20.3738 17.0218 20.3752H27.0583C27.1228 20.3755 27.186 20.3927 27.2417 20.4248C27.2974 20.457 27.3436 20.5031 27.3756 20.5585C27.4076 20.6138 27.4244 20.6766 27.4242 20.7404C27.4239 20.8042 27.4068 20.8668 27.3744 20.9219L22.6277 28.9601C22.5944 29.0158 22.5768 29.0792 22.5767 29.1439C22.5765 29.2086 22.5939 29.2721 22.627 29.3279C22.6601 29.3837 22.7077 29.4297 22.7648 29.4612C22.8219 29.4927 22.8866 29.5084 22.9519 29.5069H29.8288C29.894 29.5079 29.9584 29.4919 30.0154 29.4603C30.0723 29.4288 30.1198 29.3829 30.153 29.3273L43.55 6.63993C43.5848 6.58327 43.6346 6.53712 43.694 6.5065C43.7534 6.47588 43.8202 6.46197 43.887 6.46627C43.9539 6.47056 44.0183 6.49291 44.0732 6.53088C44.1281 6.56885 44.1714 6.62099 44.1985 6.68162L45.4808 9.65764C45.5027 9.70904 45.5122 9.76479 45.5085 9.82045C45.5049 9.87611 45.4882 9.93017 45.4597 9.97834L34.2593 28.9601C34.2269 29.0153 34.2098 29.0779 34.2096 29.1417C34.2093 29.2055 34.2261 29.2682 34.2581 29.3236C34.2901 29.379 34.3363 29.425 34.392 29.4572C34.4477 29.4894 34.5109 29.5065 34.5754 29.5069H41.5009C41.5662 29.5083 41.6308 29.4923 41.6878 29.4608C41.7448 29.4292 41.7922 29.3831 41.8251 29.3273L52.3852 11.4247C52.4173 11.3699 52.4635 11.3245 52.519 11.293C52.5744 11.2615 52.6373 11.2449 52.7013 11.2451H57.7268C57.7913 11.2451 57.8546 11.262 57.9103 11.2939C57.9661 11.3259 58.0124 11.3719 58.0444 11.4272C58.0765 11.4825 58.0932 11.5451 58.093 11.6089C58.0927 11.6726 58.0755 11.7352 58.043 11.7902L47.8963 28.9601C47.8635 29.0159 47.8464 29.0792 47.8465 29.1437C47.8466 29.2082 47.8641 29.2715 47.8971 29.3271C47.93 29.3827 47.9774 29.4287 48.0342 29.4603C48.091 29.4918 48.1553 29.5079 48.2205 29.5069H55.1395C55.2048 29.5079 55.2691 29.4919 55.3261 29.4603C55.383 29.4288 55.4305 29.3829 55.4637 29.3273L66.0222 11.4247C66.0551 11.3688 66.1025 11.3228 66.1595 11.2912C66.2166 11.2596 66.2811 11.2437 66.3464 11.2451H70.8856C70.95 11.2451 71.0133 11.262 71.0691 11.2939C71.1248 11.3259 71.1711 11.3719 71.2032 11.4272C71.2352 11.4825 71.252 11.5451 71.2517 11.6089C71.2515 11.6726 71.2342 11.7352 71.2017 11.7902L61.055 28.9601C61.0223 29.0159 61.0051 29.0792 61.0052 29.1437C61.0054 29.2082 61.0228 29.2715 61.0558 29.3271C61.0888 29.3827 61.1361 29.4287 61.1929 29.4603C61.2498 29.4918 61.3141 29.5079 61.3792 29.5069H68.2982C68.3635 29.5079 68.4279 29.4919 68.4848 29.4603C68.5418 29.4288 68.5893 29.3829 68.6225 29.3273L82.0065 6.63993C82.0413 6.58327 82.0911 6.53712 82.1505 6.5065C82.2099 6.47588 82.2767 6.46197 82.3435 6.46627C82.4104 6.47056 82.4748 6.49291 82.5297 6.53088C82.5846 6.56885 82.6279 6.62099 82.655 6.68162L83.9373 9.65764C83.9588 9.70913 83.9681 9.76481 83.9645 9.82041C83.9608 9.87601 83.9443 9.93004 83.9162 9.97834L72.7158 28.9601C72.6837 29.0151 72.6668 29.0775 72.6667 29.141C72.6667 29.2045 72.6835 29.2669 72.7155 29.322C72.7475 29.377 72.7936 29.4228 72.8492 29.4547C72.9047 29.4866 72.9677 29.5035 73.0319 29.5037H79.9509C80.0162 29.5047 80.0806 29.4886 80.1375 29.4571C80.1945 29.4256 80.242 29.3797 80.2752 29.3241L85.4628 20.5515C85.496 20.496 85.5435 20.4501 85.6004 20.4185C85.6574 20.387 85.7217 20.3709 85.787 20.372H95.8088C95.874 20.3709 95.9383 20.387 95.9952 20.4186C96.052 20.4502 96.0993 20.4961 96.1323 20.5518C96.1653 20.6074 96.1827 20.6707 96.1829 20.7351C96.183 20.7996 96.1658 20.863 96.1331 20.9187L91.3848 28.9569C91.352 29.0126 91.3348 29.076 91.335 29.1405C91.3351 29.205 91.3526 29.2683 91.3855 29.3239C91.4185 29.3795 91.4658 29.4255 91.5227 29.457C91.5795 29.4886 91.6438 29.5047 91.709 29.5037H98.628C98.6932 29.5047 98.7576 29.4886 98.8146 29.4571C98.8715 29.4256 98.919 29.3797 98.9522 29.3241L112.322 6.63993C112.356 6.58327 112.406 6.53712 112.466 6.5065C112.525 6.47588 112.592 6.46197 112.659 6.46627C112.726 6.47056 112.79 6.49291 112.845 6.53088C112.9 6.56885 112.943 6.62099 112.97 6.68162L114.841 11.0238C114.87 11.0892 114.917 11.145 114.977 11.1843C115.037 11.2236 115.108 11.2447 115.18 11.2451H124.148C124.225 11.245 124.299 11.2687 124.362 11.3129C124.424 11.3572 124.471 11.4197 124.496 11.4916C124.52 11.5635 124.521 11.6413 124.499 11.7138C124.476 11.7864 124.431 11.8502 124.37 11.8961L101.943 28.8623C101.882 28.9082 101.837 28.9719 101.815 29.0445C101.792 29.1171 101.793 29.1948 101.818 29.2668C101.842 29.3387 101.889 29.4012 101.951 29.4454C102.014 29.4897 102.089 29.5134 102.165 29.5133H128.914C128.979 29.5143 129.044 29.4983 129.101 29.4667C129.158 29.4352 129.205 29.3893 129.238 29.3337L133.072 22.8413C133.105 22.7855 133.122 22.7222 133.122 22.6577C133.122 22.5932 133.104 22.5299 133.071 22.4743C133.038 22.4187 132.991 22.3727 132.934 22.3411C132.877 22.3095 132.813 22.2935 132.748 22.2945H122.211C122.134 22.2944 122.059 22.2704 121.996 22.2258C121.934 22.1812 121.888 22.1184 121.863 22.0462C121.839 21.974 121.839 21.8961 121.862 21.8236C121.885 21.751 121.93 21.6874 121.992 21.6419L142.676 6.3946C142.72 6.36183 142.772 6.33949 142.826 6.32926C142.881 6.31902 142.937 6.32117 142.99 6.33553C143.044 6.34989 143.094 6.37609 143.135 6.41215C143.177 6.44822 143.21 6.49321 143.232 6.54372L144.574 9.65764C144.596 9.70913 144.605 9.76481 144.601 9.82041C144.598 9.87601 144.581 9.93004 144.553 9.97834L133.346 28.9601C133.313 29.0158 133.295 29.0792 133.295 29.1439C133.295 29.2086 133.312 29.2721 133.345 29.3279C133.379 29.3837 133.426 29.4297 133.483 29.4612C133.54 29.4927 133.605 29.5084 133.67 29.5069H140.589C140.655 29.5079 140.719 29.4919 140.776 29.4603C140.833 29.4288 140.88 29.3829 140.914 29.3273L154.296 6.63993C154.331 6.58327 154.381 6.53712 154.44 6.5065C154.499 6.47588 154.566 6.46197 154.633 6.46627C154.7 6.47056 154.764 6.49291 154.819 6.53088C154.874 6.56885 154.917 6.62099 154.944 6.68162L156.227 9.65764C156.249 9.70904 156.258 9.76479 156.255 9.82045C156.251 9.87611 156.234 9.93017 156.206 9.97834L145.005 28.9601C144.973 29.0153 144.956 29.0779 144.956 29.1417C144.955 29.2055 144.972 29.2682 145.004 29.3236C145.036 29.379 145.082 29.425 145.138 29.4572C145.194 29.4894 145.257 29.5065 145.321 29.5069H152.242C152.306 29.5068 152.369 29.4902 152.424 29.4587C152.48 29.4272 152.526 29.3819 152.558 29.3273L160.132 16.4996C160.169 16.4354 160.226 16.3841 160.294 16.3525C160.361 16.3209 160.437 16.3107 160.511 16.3231C160.585 16.3355 160.653 16.37 160.706 16.4219C160.76 16.4738 160.796 16.5407 160.81 16.6135L163.269 29.2231C163.288 29.3176 163.344 29.4009 163.425 29.4548C163.505 29.5086 163.605 29.5285 163.7 29.5101C163.723 29.5077 163.746 29.5077 163.768 29.5101H170.901C170.967 29.5111 171.031 29.4951 171.088 29.4635C171.145 29.432 171.192 29.3861 171.226 29.3305L184.623 6.64314C184.657 6.58648 184.707 6.54033 184.767 6.50971C184.826 6.47909 184.893 6.46517 184.96 6.46947C185.026 6.47377 185.091 6.49612 185.146 6.53409C185.201 6.57206 185.244 6.6242 185.271 6.68483L186.553 9.66085C186.575 9.71225 186.585 9.76799 186.581 9.82366C186.577 9.87932 186.561 9.93338 186.532 9.98154L175.325 28.9585C175.293 29.0142 175.275 29.0776 175.276 29.1421C175.276 29.2066 175.293 29.2699 175.326 29.3255C175.359 29.3811 175.406 29.4271 175.463 29.4587C175.52 29.4902 175.584 29.5063 175.65 29.5053H201.225C201.29 29.5063 201.354 29.4903 201.411 29.4587C201.468 29.4272 201.516 29.3813 201.549 29.3257L210.775 13.7016C210.808 13.6459 210.825 13.5826 210.825 13.5182C210.825 13.4538 210.807 13.3905 210.774 13.335C210.741 13.2794 210.694 13.2336 210.637 13.2022C210.58 13.1708 210.516 13.155 210.45 13.1564H198.867C198.802 13.155 198.738 13.1709 198.681 13.2025C198.624 13.2341 198.576 13.2802 198.543 13.336L194.698 19.83C194.665 19.8856 194.648 19.9489 194.648 20.0134C194.648 20.0778 194.665 20.1411 194.698 20.1966C194.731 20.2522 194.779 20.298 194.836 20.3294C194.893 20.3608 194.957 20.3766 195.022 20.3752H198.409C198.473 20.3755 198.536 20.3927 198.592 20.4248C198.648 20.457 198.694 20.5031 198.726 20.5585C198.758 20.6138 198.775 20.6766 198.775 20.7404C198.774 20.8042 198.757 20.8668 198.725 20.9219L198.024 22.1085C197.992 22.1643 197.944 22.2104 197.887 22.242C197.83 22.2736 197.766 22.2895 197.7 22.2881H187.664C187.599 22.2895 187.534 22.2737 187.477 22.2423C187.421 22.2109 187.373 22.1651 187.34 22.1095C187.307 22.054 187.29 21.9907 187.29 21.9263C187.289 21.8619 187.307 21.7986 187.34 21.7429L193.433 11.4247C193.466 11.3687 193.514 11.3226 193.571 11.291C193.628 11.2594 193.692 11.2435 193.758 11.2451H211.992C212.057 11.2458 212.122 11.2295 212.178 11.1976C212.235 11.1658 212.282 11.1196 212.315 11.0639ZM31.7206 13.158H21.6858C21.6206 13.1591 21.5563 13.143 21.4995 13.1114C21.4427 13.0798 21.3954 13.0338 21.3624 12.9782C21.3294 12.9226 21.3119 12.8593 21.3118 12.7948C21.3117 12.7303 21.3289 12.667 21.3616 12.6112L22.0636 11.4247C22.0964 11.3687 22.1438 11.3226 22.2008 11.291C22.2578 11.2594 22.3224 11.2435 22.3878 11.2451H32.4226C32.4877 11.2437 32.5521 11.2595 32.609 11.2909C32.6659 11.3223 32.7133 11.3681 32.7463 11.4236C32.7793 11.4792 32.7968 11.5424 32.7969 11.6069C32.797 11.6713 32.7797 11.7346 32.7468 11.7902L32.0449 12.9768C32.0123 13.0327 31.9652 13.0789 31.9085 13.1108C31.8517 13.1426 31.7875 13.1589 31.7223 13.158H31.7206ZM100.491 13.158H90.4591C90.3939 13.1591 90.3296 13.143 90.2728 13.1114C90.216 13.0798 90.1686 13.0338 90.1356 12.9782C90.1027 12.9226 90.0852 12.8593 90.0851 12.7948C90.0849 12.7303 90.1021 12.667 90.1349 12.6112L90.8368 11.4247C90.8688 11.3698 90.9149 11.3243 90.9705 11.2928C91.026 11.2612 91.0889 11.2448 91.153 11.2451H101.189C101.254 11.2451 101.317 11.262 101.373 11.2939C101.429 11.3259 101.475 11.3719 101.507 11.4272C101.539 11.4825 101.556 11.5451 101.556 11.6089C101.555 11.6726 101.538 11.7352 101.505 11.7902L100.805 12.9768C100.773 13.0312 100.728 13.0764 100.673 13.1082C100.618 13.1399 100.556 13.1571 100.492 13.158H100.491Z" fill="white"/>
<path d="M13.6941 -3.35453e-06C12.9704 -0.000970374 12.2561 0.162137 11.6061 0.476792C10.9561 0.791446 10.3876 1.24928 9.94438 1.81511C9.44287 2.46529 9.12438 3.23523 9.0213 4.04665C8.91823 4.85806 9.03423 5.682 9.35753 6.43468L10.6982 9.54219L0.634216 26.5806C0.219892 27.2829 0.000184302 28.0808 -0.00273616 28.894C-0.00565661 29.7071 0.208313 30.5066 0.617582 31.2118C1.02685 31.917 1.61694 32.5029 2.3283 32.9105C3.03966 33.3181 3.84712 33.5329 4.66921 33.5332L223.219 33.5412L221.807 35.8566C221.371 36.5714 221.135 37.3878 221.123 38.2224C221.111 39.0569 221.324 39.8797 221.739 40.6064C222.154 41.3331 222.757 41.9376 223.486 42.3582C224.215 42.7788 225.043 43.0003 225.887 43H252.605C253.425 42.9977 254.231 42.7871 254.944 42.3884C255.658 41.9897 256.257 41.4163 256.682 40.7231L271.315 16.7433C271.751 16.0285 271.987 15.212 271.999 14.3773C272.011 13.5425 271.799 12.7196 271.384 11.9926C270.969 11.2657 270.366 10.6608 269.637 10.2398C268.909 9.81881 268.08 9.59688 267.236 9.59671H258.877L260.265 7.26046C260.695 6.54629 260.926 5.7322 260.934 4.90106C260.943 4.06992 260.728 3.2514 260.313 2.5288C259.898 1.8062 259.296 1.20532 258.57 0.787322C257.844 0.369318 257.018 0.149114 256.178 0.149118L13.6941 -3.35453e-06ZM256.178 1.56978C256.766 1.56933 257.343 1.72312 257.85 2.01544C258.358 2.30776 258.778 2.72814 259.068 3.23363C259.357 3.73912 259.506 4.3116 259.499 4.89259C259.492 5.47358 259.329 6.04225 259.026 6.54051L256.366 11.0174H267.228C267.818 11.0166 268.397 11.1711 268.907 11.4648C269.416 11.7585 269.838 12.1811 270.128 12.689C270.418 13.197 270.567 13.7721 270.558 14.3555C270.55 14.9389 270.384 15.5095 270.079 16.0089L255.447 39.9887C255.15 40.4727 254.732 40.8732 254.234 41.1517C253.735 41.4303 253.173 41.5775 252.6 41.5793H225.887C225.298 41.5791 224.719 41.4241 224.21 41.1302C223.701 40.8363 223.281 40.4141 222.991 39.9066C222.701 39.3991 222.553 38.8246 222.561 38.2417C222.569 37.6589 222.733 37.0887 223.037 36.5894C223.874 35.22 224.937 33.4738 225.762 32.1205H4.66921C4.10132 32.118 3.54406 31.9679 3.05322 31.6854C2.56237 31.4029 2.15515 30.9979 1.87232 30.5108C1.58948 30.0237 1.44096 29.4717 1.4416 28.91C1.44225 28.3483 1.59205 27.7966 1.876 27.3101L12.3015 9.6416L10.6804 5.87668C10.4564 5.35556 10.3759 4.78506 10.4471 4.22319C10.5182 3.66132 10.7386 3.12811 11.0857 2.67778C11.3944 2.285 11.79 1.96745 12.2422 1.74953C12.6944 1.5316 13.1911 1.4191 13.6941 1.42066L256.178 1.56978Z" fill="white"/>
</g>
<defs>
<clipPath id="clip0">
<rect width="272" height="43" fill="white"/>
</clipPath>
</defs>
</svg>
