<svg width="29" height="22" viewBox="0 0 29 22" fill="none" xmlns="http://www.w3.org/2000/svg">
<path d="M2.175 0.0799971C1.715 0.072497 1.29249 0.312497 1.05999 0.709997C0.827495 1.1025 0.827495 1.595 1.05999 1.99C1.29249 2.385 1.715 2.6275 2.175 2.62H27.5725C28.03 2.6275 28.455 2.385 28.685 1.99C28.9175 1.595 28.9175 1.1025 28.685 0.709997C28.455 0.312497 28.03 0.072497 27.5725 0.0799971H2.175ZM2.175 9.6025C1.715 9.595 1.29249 9.8375 1.05999 10.2325C0.827495 10.6275 0.827495 11.1175 1.05999 11.5125C1.29249 11.91 1.715 12.15 2.175 12.1425H27.5725C28.03 12.15 28.455 11.91 28.685 11.5125C28.9175 11.1175 28.9175 10.6275 28.685 10.2325C28.455 9.8375 28.03 9.595 27.5725 9.6025H2.175ZM2.175 19.1275C1.715 19.12 1.29249 19.36 1.05999 19.7575C0.827495 20.1525 0.827495 20.6425 1.05999 21.0375C1.29249 21.4325 1.715 21.675 2.175 21.6675H27.5725C28.03 21.675 28.455 21.4325 28.685 21.0375C28.9175 20.6425 28.9175 20.1525 28.685 19.7575C28.455 19.36 28.03 19.12 27.5725 19.1275H2.175Z" fill="white"/>
</svg>
